<?xml version="1.0" standalone="no"?>
<!DOCTYPE svg PUBLIC "-//W3C//DTD SVG 20010904//EN"
 "http://www.w3.org/TR/2001/REC-SVG-20010904/DTD/svg10.dtd">
<svg version="1.0" xmlns="http://www.w3.org/2000/svg"
 width="192.000000pt" height="192.000000pt" viewBox="0 0 192.000000 192.000000"
 preserveAspectRatio="xMidYMid meet">

<g transform="translate(0.000000,192.000000) scale(0.100000,-0.100000)"
fill="#000000" stroke="none">
<path d="M0 960 l0 -850 960 0 960 0 0 850 0 850 -960 0 -960 0 0 -850z m974
684 c18 -7 22 -49 5 -60 -8 -4 -8 -9 0 -17 15 -15 14 -37 -3 -37 -7 0 -16 9
-19 20 -3 11 -10 20 -16 20 -6 0 -11 -9 -11 -20 0 -11 -7 -20 -15 -20 -12 0
-15 13 -15 60 0 60 0 60 29 60 16 0 36 -3 45 -6z m-164 -23 c0 -5 -10 -11 -22
-13 -28 -4 -36 -28 -9 -28 12 0 21 -4 21 -10 0 -5 -7 -10 -15 -10 -8 0 -15 -7
-15 -16 0 -13 7 -15 30 -11 45 10 46 -11 0 -23 -50 -13 -56 -10 -64 36 -4 19
-10 42 -13 50 -3 8 4 18 18 23 31 13 69 13 69 2z m331 -1 c10 -6 19 -17 19
-25 0 -17 -16 -20 -25 -5 -3 6 -14 10 -23 10 -13 -1 -10 -6 11 -21 32 -24 35
-54 6 -69 -16 -9 -26 -8 -45 5 -27 17 -32 45 -9 45 8 0 15 -7 15 -15 0 -8 7
-15 15 -15 22 0 18 12 -11 35 -23 18 -25 24 -15 43 13 24 32 28 62 12z m-493
-67 c2 -8 -6 -13 -22 -13 -13 0 -28 -5 -31 -10 -9 -15 22 -60 40 -60 18 0 20
27 3 32 -15 5 -1 28 17 28 20 0 30 -47 15 -65 -13 -16 -57 -20 -76 -7 -13 8
-34 46 -34 61 0 37 77 66 88 34z m-129 -112 c17 -21 31 -44 31 -51 0 -12 -27
-10 -64 5 -18 8 -18 7 -1 -19 29 -44 7 -43 -37 1 -56 56 -39 78 37 48 19 -8
18 -6 -2 17 -27 28 -29 38 -9 38 8 0 28 -18 45 -39z m935 10 c15 -16 23 -32
18 -35 -5 -3 -15 1 -22 9 -13 16 -40 21 -40 7 0 -4 5 -13 12 -20 17 -17 2 -27
-17 -12 -13 10 -19 10 -33 -4 -22 -19 -32 -20 -32 -5 0 15 62 87 76 88 5 1 23
-12 38 -28z m-386 -22 c32 -10 32 -11 32 -75 l0 -64 -80 0 -80 0 0 73 c0 41 3
77 8 81 8 9 71 1 120 -15z m-708 -87 c0 -4 -7 -17 -15 -28 -18 -27 -7 -39 17
-17 23 20 33 12 18 -16 -9 -17 -8 -21 5 -21 8 0 20 9 27 20 7 11 16 20 20 20
15 0 8 -25 -15 -54 l-24 -29 -46 32 c-26 18 -47 34 -47 37 0 3 9 19 21 35 19
27 39 38 39 21z m1209 -21 c27 -37 26 -44 -1 -38 -29 7 -71 -25 -62 -47 10
-27 -13 -18 -35 13 -27 37 -26 43 2 36 28 -6 70 27 61 49 -10 27 13 18 35 -13z
m-1261 -152 c50 -36 57 -69 15 -69 -46 0 -103 12 -103 21 0 5 21 9 47 9 l48 0
-32 23 c-30 20 -44 47 -25 47 4 0 27 -14 50 -31z m1336 5 c20 -20 20 -48 1
-64 -16 -13 -19 -6 -16 33 1 9 -3 17 -8 17 -6 0 -11 -15 -11 -34 0 -22 -6 -36
-16 -40 -26 -10 -33 -7 -49 18 -13 19 -14 29 -5 45 14 28 31 27 28 -1 -2 -13
2 -24 7 -25 6 -1 9 7 7 18 -4 23 14 49 34 49 7 0 20 -7 28 -16z m-1064 -169
l0 -75 -81 0 -82 0 7 50 c13 96 17 100 91 100 l65 0 0 -75z m1114 9 c10 -25 7
-84 -4 -84 -5 0 -10 7 -10 16 0 13 -9 15 -50 12 -64 -4 -68 17 -5 26 36 6 45
11 45 27 0 23 15 25 24 3z m-1374 -14 c0 -5 -7 -10 -15 -10 -18 0 -20 -31 -3
-48 22 -22 -2 -25 -54 -5 -38 14 -54 26 -56 41 -3 16 3 22 25 25 55 8 103 7
103 -3z m663 -70 c15 -61 8 -77 -21 -48 -10 10 -17 10 -32 0 -34 -21 -38 -13
-23 48 13 51 19 60 38 60 19 0 25 -9 38 -60z m479 -42 c-1 -18 -7 -52 -14 -75
l-11 -43 -62 0 -63 0 -4 73 c-2 39 -3 74 -2 77 1 3 37 4 81 3 l78 -1 -3 -34z
m58 -405 c0 -2 -5 -3 -11 -3 -5 0 -15 14 -20 30 -6 17 -15 30 -21 30 -6 0 -8
-7 -4 -15 3 -9 0 -15 -8 -15 -26 0 -26 14 1 42 l27 28 18 -47 c10 -27 18 -49
18 -50z m-1085 67 c14 -16 16 -23 7 -32 -7 -7 -13 -9 -13 -5 -1 4 -3 12 -4 17
-1 6 -3 13 -4 16 0 3 -6 2 -11 -1 -7 -4 -6 -13 1 -26 7 -15 7 -24 -2 -35 -15
-18 -24 -18 -43 2 -20 20 -21 44 -1 44 8 0 15 6 15 14 0 13 13 23 31 25 3 1
14 -8 24 -19z m505 -64 l0 -85 -37 6 c-21 3 -55 9 -75 14 l-38 10 0 64 0 64
63 4 c34 2 68 4 75 5 9 1 12 -21 12 -82z m-392 -36 c3 -8 -1 -11 -10 -7 -18 6
-44 -35 -34 -52 12 -19 -20 -12 -39 9 -16 17 -16 20 -2 20 21 0 47 38 39 59
-5 15 -4 15 18 0 13 -9 26 -22 28 -29z m847 0 c11 -17 26 -28 33 -25 20 8 14
-13 -10 -29 -26 -19 -47 -21 -30 -4 8 8 8 17 0 31 -8 16 -12 17 -19 6 -12 -20
-22 -3 -15 26 8 33 17 32 41 -5z m-765 -61 c6 -22 7 -23 17 -5 18 33 24 -1 6
-38 -19 -42 -43 -47 -43 -11 0 29 -8 32 -26 8 -18 -24 -17 -3 1 41 17 41 36
43 45 5z m670 0 c6 -11 10 -30 8 -42 -2 -17 -10 -22 -33 -22 -23 0 -32 6 -39
26 -5 15 -6 34 -3 43 9 23 54 20 67 -5z m-126 -45 c3 -9 1 -24 -4 -35 -9 -15
-7 -19 7 -19 24 0 4 -16 -29 -24 -31 -7 -35 1 -13 30 16 21 20 54 6 54 -5 0
-12 -7 -15 -16 -3 -8 -11 -12 -18 -8 -8 5 -4 13 11 25 24 19 46 16 55 -7z
m-390 0 c10 -25 -4 -32 -20 -10 -15 22 -30 14 -36 -19 -2 -15 4 -21 27 -26 24
-5 26 -7 13 -13 -44 -19 -80 16 -60 58 14 31 66 37 76 10z m131 -14 c4 -6 -5
-10 -19 -10 -14 0 -26 -4 -26 -10 0 -5 8 -10 17 -10 9 0 13 -3 9 -7 -4 -5 -12
-8 -17 -8 -20 0 -13 -20 9 -23 23 -4 31 -22 10 -22 -44 1 -58 13 -58 49 0 21
3 41 7 44 10 11 61 8 68 -3z"/>
<path d="M935 1620 c-4 -6 -3 -16 3 -22 6 -6 12 -6 17 2 4 6 3 16 -3 22 -6 6
-12 6 -17 -2z"/>
<path d="M230 976 c0 -2 7 -6 15 -10 8 -3 15 -1 15 4 0 6 -7 10 -15 10 -8 0
-15 -2 -15 -4z"/>
<path d="M941 924 c0 -11 3 -14 6 -6 3 7 2 16 -1 19 -3 4 -6 -2 -5 -13z"/>
<path d="M372 511 c4 -13 18 -16 19 -4 0 4 -5 9 -11 12 -7 2 -11 -2 -8 -8z"/>
<path d="M1250 381 c0 -21 13 -41 26 -41 15 0 17 10 8 34 -7 17 -34 22 -34 7z"/>
</g>
</svg>
